<svg width="62" height="62" viewBox="0 0 62 62" fill="none" xmlns="http://www.w3.org/2000/svg">
<path d="M7.49288 57.783C7.49288 57.7756 7.49288 57.7683 7.50215 56.8563M7.50215 56.8563C7.50857 56.2245 7.51944 55.1583 7.53785 53.3569C7.54559 52.5992 7.55466 51.7114 7.56694 50.7238M7.50215 56.8563C8.54996 62.7079 8.58121 62.5671 7.945 55.1187C7.83542 53.8358 7.70715 52.3486 7.56694 50.7238M7.50215 56.8563C7.43167 56.4627 7.35659 56.042 7.27681 55.5946C6.01088 48.4954 3.56275 34.6826 2.24726 25.2055C0.931762 15.7284 0.823085 11.0055 1.16695 12.1517C1.23543 12.38 1.32199 12.8468 1.42572 13.4984M7.56694 50.7238C7.57596 49.9991 7.5867 49.2207 7.59991 48.4004M7.56694 50.7238C7.51787 50.155 7.46734 49.5694 7.41563 48.9699M7.59991 48.4004C7.6063 48.0036 7.61327 47.5969 7.6209 47.1818M7.59991 48.4004C8.00382 47.0294 8.56494 44.3368 9.2329 38.993C9.7586 34.7872 10.3379 29.0725 10.8295 24.3537M7.59991 48.4004C7.54143 48.5989 7.48624 48.7697 7.4345 48.9168C7.42815 48.9349 7.42186 48.9526 7.41563 48.9699M7.6209 47.1818C7.64154 46.0591 7.66702 44.8746 7.69901 43.6551M7.6209 47.1818C7.69077 46.9678 7.73497 46.0989 7.69901 43.6551M7.6209 47.1818C7.57181 47.3322 7.51006 47.1594 7.45452 46.9822C7.33725 46.6081 7.25115 46.2225 7.12055 44.5419M7.69901 43.6551C7.79094 40.1504 7.93659 36.3566 8.1754 32.9085C8.49002 28.366 8.96525 24.5277 9.42308 21.6494M7.69901 43.6551C7.68667 42.8166 7.6649 41.7929 7.63149 40.5466C7.60695 39.6311 7.5764 38.6023 7.54092 37.4876M9.42308 21.6494C9.42862 21.6146 9.43415 21.5799 9.43968 21.5454M9.42308 21.6494C9.63136 21.7842 9.88164 21.9423 10.1719 22.1209M9.42308 21.6494C9.03354 21.3972 8.79089 21.2263 8.70817 21.1548M9.43968 21.5454C9.52178 21.0329 9.60325 20.5515 9.68306 20.1025M9.43968 21.5454C9.27437 21.4454 9.10657 21.346 8.93617 21.2474C8.82502 21.183 8.75019 21.1433 8.7104 21.1265M9.43968 21.5454C9.8011 21.7641 10.1506 21.9861 10.4891 22.2118M9.68306 20.1025C9.69963 20.0094 9.71612 19.9176 9.73253 19.8272M9.68306 20.1025C10.17 20.4855 10.6633 20.8724 11.156 21.2577M9.68306 20.1025C9.40169 19.8812 9.12245 19.6612 8.84671 19.4437M9.73253 19.8272C9.77382 19.5999 9.81459 19.3815 9.85471 19.1723M9.73253 19.8272C10.1911 20.1613 10.6796 20.5178 11.1951 20.8956M9.73253 19.8272C9.43095 19.6075 9.14231 19.3976 8.86743 19.1976M9.85471 19.1723C9.90431 18.9137 9.9529 18.6691 10.0002 18.4388M9.85471 19.1723C9.5408 18.9372 9.2313 18.7092 8.92858 18.4918M9.85471 19.1723C10.3179 19.5193 10.7907 19.882 11.2656 20.2498M10.0002 18.4388C10.0653 18.1222 10.1279 17.8327 10.1874 17.5715C10.1943 17.5415 10.2011 17.5118 10.2078 17.4826M10.0002 18.4388C10.4248 18.6275 10.8876 18.8383 11.3966 19.0791M10.0002 18.4388C9.63092 18.2747 9.29059 18.1274 8.97399 17.9915M10.2078 17.4826C10.2193 17.4328 10.2307 17.3842 10.2419 17.3367M10.2078 17.4826C9.75638 17.2347 9.44732 17.071 9.23795 16.9639M10.2078 17.4826C10.5502 17.6706 10.9745 17.907 11.4993 18.2039M10.2419 17.3367C10.3653 16.8144 10.4733 16.426 10.5687 16.1418M10.2419 17.3367C10.6162 17.4735 11.0541 17.6346 11.546 17.8233M10.2419 17.3367C9.82325 17.1837 9.48416 17.061 9.23795 16.9639M10.5687 16.1418C10.9041 15.1415 11.0823 15.4307 11.2216 15.7107C11.3109 15.8901 11.3824 16.0629 11.7083 16.5946M10.5687 16.1418C10.1126 15.8252 9.70942 15.5587 9.36411 15.3474M10.5687 16.1418C10.9053 16.3754 11.2707 16.6364 11.6629 16.9225M11.7083 16.5946C11.8183 16.7742 11.9574 16.9947 12.136 17.2702M11.7083 16.5946C11.7784 16.0973 11.843 15.6834 11.9024 15.34M11.7083 16.5946C11.6934 16.7001 11.6783 16.8094 11.6629 16.9225M12.136 17.2702C12.3237 17.5598 12.5551 17.9102 12.8423 18.3377M12.136 17.2702C11.9743 17.1505 11.8165 17.0346 11.6629 16.9225M12.136 17.2702C12.4498 17.5025 12.7787 17.7489 13.1217 18.0084M12.8423 18.3377C12.9357 18.4768 13.0349 18.624 13.1406 18.7799M12.8423 18.3377C12.9455 18.3802 13.0503 18.4236 13.1566 18.4681M12.8423 18.3377C12.3781 18.147 11.9443 17.9761 11.546 17.8233M13.1406 18.7799C13.1545 18.8004 13.1685 18.8211 13.1826 18.8419M13.1406 18.7799C13.1472 18.6886 13.1538 18.6022 13.1603 18.5204M13.1406 18.7799C13.1327 18.8889 13.1247 19.0048 13.1168 19.1281M13.1826 18.8419C13.2965 19.0098 13.4175 19.1875 13.5461 19.3758M13.1826 18.8419C13.19 18.9518 13.1973 19.064 13.2045 19.1786M13.1826 18.8419C13.1753 18.7325 13.1678 18.6253 13.1603 18.5204M13.5461 19.3758C13.6755 19.5651 13.8126 19.7651 13.958 19.9765C14.0889 20.1667 14.2264 20.3661 14.37 20.5738M13.5461 19.3758C13.4295 19.3084 13.3156 19.2427 13.2045 19.1786M13.5461 19.3758C13.9258 19.5953 14.3355 19.833 14.7775 20.0905M14.37 20.5738C14.4049 20.6243 14.4402 20.6753 14.4758 20.7268M14.37 20.5738C14.4586 20.6207 14.5481 20.6684 14.6387 20.7168M14.37 20.5738C13.9784 20.3663 13.6063 20.1729 13.2521 19.9921M14.4758 20.7268C15.0059 21.4928 15.6123 22.3633 16.2615 23.2924M14.4758 20.7268C14.0607 20.763 13.6677 20.8816 13.3064 21.1009M14.4758 20.7268C14.5298 20.7221 14.5841 20.7188 14.6387 20.7168M16.2615 23.2924C16.6837 23.8966 17.124 24.5256 17.5733 25.1667M16.2615 23.2924C16.3146 23.0048 16.3664 22.7413 16.4178 22.5017M16.2615 23.2924C16.2525 23.3412 16.2434 23.3907 16.2343 23.4409C16.2017 23.6209 16.1683 23.8099 16.1341 24.0073M17.5733 25.1667C17.826 25.5274 18.0816 25.8919 18.3383 26.258M17.5733 25.1667C17.1411 24.8084 16.6612 24.421 16.1341 24.0073M17.5733 25.1667C18.6112 26.0273 19.3742 26.7204 19.8553 27.2082M18.3383 26.258C18.4231 26.3789 18.5081 26.5 18.5931 26.6212M18.3383 26.258C18.6022 26.4617 18.8685 26.6679 19.137 26.8766M18.3383 26.258C17.5527 25.6517 16.7881 25.0678 16.0489 24.5079M18.5931 26.6212C18.6531 26.7067 18.7131 26.7923 18.7731 26.8779M18.5931 26.6212C18.7724 26.706 18.9537 26.7911 19.137 26.8766M18.5931 26.6212C18.4572 26.5569 18.3224 26.4928 18.1888 26.4289M18.7731 26.8779C18.8393 26.9722 18.9055 27.0665 18.9716 27.1608M18.7731 26.8779C18.5829 26.7269 18.3881 26.5773 18.1888 26.4289M18.7731 26.8779C19.0749 27.1174 19.3653 27.3603 19.6444 27.6069M18.9716 27.1608C20.3774 29.1645 21.7793 31.161 22.9122 32.7856M18.9716 27.1608C19.2325 27.3398 19.456 27.4878 19.6444 27.6069M18.9716 27.1608C18.5585 26.8773 18.0516 26.5159 17.4418 26.0681M22.9122 32.7856C23.1965 33.1933 23.4638 33.5775 23.71 33.9326C24.0344 34.4004 24.3242 34.8356 24.5831 35.2406M22.9122 32.7856C22.3184 36.7662 22.2662 37.9456 22.2908 38.7066C22.3184 39.5592 22.4386 39.8771 22.7407 39.2969C22.966 38.8642 23.2847 37.9562 24.5831 35.2406M22.9122 32.7856C22.9746 32.3667 23.0431 31.9169 23.1181 31.4332M24.5831 35.2406C26.8874 38.846 26.7454 40.0611 26.8109 40.5748C26.8238 40.6764 26.9849 40.4433 28.1899 38.3001M24.5831 35.2406C24.755 34.8811 24.9441 34.4899 25.1524 34.0639M28.1899 38.3001C28.3471 38.0207 28.522 37.7087 28.7166 37.3608C29.1133 36.6516 29.595 35.7925 30.131 34.8426M28.1899 38.3001C27.428 37.2313 26.4127 35.7565 25.1524 34.0639M28.1899 38.3001C28.4406 38.6518 28.6639 38.9596 28.8594 39.2166L28.8846 39.2498C29.3872 39.9112 29.6019 40.1939 29.79 38.4887C29.8792 37.6794 29.9601 36.4208 30.131 34.8426M30.131 34.8426C30.8449 33.5774 31.6551 32.151 32.4892 30.7031M30.131 34.8426C30.2523 33.7234 30.4188 32.4434 30.6659 31.0489M32.4892 30.7031C32.5096 30.6678 32.5299 30.6324 32.5503 30.597M32.4892 30.7031C32.9096 30.9458 33.3176 31.182 33.7133 31.4119M32.4892 30.7031C32.2736 30.5787 32.0546 30.4526 31.8324 30.3248C31.6539 30.2221 31.4734 30.1185 31.2911 30.0139M32.5503 30.597C32.8836 30.0189 33.2204 29.438 33.556 28.8629M32.5503 30.597C32.1601 30.3647 31.7646 30.1293 31.365 29.8916M32.5503 30.597C32.9489 30.8343 33.342 31.0685 33.7283 31.2987M33.556 28.8629C33.747 28.5359 33.9376 28.2107 34.127 27.8891M33.556 28.8629C33.7275 28.8788 33.9011 28.8932 34.0767 28.9062M33.556 28.8629C33.1398 28.8245 32.7357 28.7777 32.3432 28.7233M34.127 27.8891C34.1813 27.7969 34.2355 27.705 34.2896 27.6134M34.127 27.8891C33.9658 27.7389 33.7784 27.5742 33.5645 27.3963M34.127 27.8891C34.1615 27.9213 34.1948 27.9527 34.2269 27.9836M34.2896 27.6134C34.5592 27.157 34.8258 26.7088 35.087 26.2736M34.2896 27.6134C34.2686 27.7363 34.2476 27.8597 34.2269 27.9836M34.2896 27.6134C34.3652 27.1725 34.4427 26.7374 34.5219 26.3094M35.087 26.2736C35.205 26.077 35.3219 25.8831 35.4375 25.6922M35.087 26.2736C35.0677 26.0739 35.0503 25.8829 35.0346 25.7003M35.087 26.2736C35.1597 27.0263 35.2588 27.9023 35.3875 28.9117M35.4375 25.6922C35.5464 25.5124 35.6542 25.3352 35.7605 25.1612M35.4375 25.6922C35.4278 25.4801 35.4289 25.3163 35.442 25.1998M35.4375 25.6922C35.4605 26.1973 35.5443 26.9758 35.67 28.0396M35.7605 25.1612C35.8514 25.0125 35.9413 24.8661 36.0301 24.7222C36.1226 24.5722 36.2139 24.4246 36.304 24.2795M35.7605 25.1612C35.8937 25.3372 36.071 25.6428 36.2992 26.0738M35.7605 25.1612C35.698 25.0786 35.6453 25.0245 35.6015 24.9995M36.304 24.2795C36.6998 23.6424 37.0728 23.0519 37.4244 22.5042M36.304 24.2795C36.4104 24.4865 36.5261 24.7129 36.6523 24.9597M36.304 24.2795C36.2839 24.2403 36.2641 24.2018 36.2446 24.164M37.4244 22.5042C37.4825 22.4137 37.5401 22.3244 37.597 22.2362M37.4244 22.5042C37.4258 22.4996 37.4273 22.495 37.4287 22.4904M37.4244 22.5042C37.1597 23.3501 36.9011 24.1728 36.6523 24.9597M37.597 22.2362C37.6734 22.1179 37.7488 22.0017 37.8231 21.8875M37.597 22.2362C37.6724 22.1213 37.7478 22.0051 37.8231 21.8875M37.597 22.2362C37.5409 22.3217 37.4848 22.4064 37.4287 22.4904M37.8231 21.8875C37.8302 21.8766 37.8373 21.8657 37.8444 21.8548M37.8444 21.8548C38.123 21.4272 38.3871 21.0283 38.6377 20.6557M37.8444 21.8548C38.2074 23.2402 38.7214 25.0545 39.4548 27.4509M37.8444 21.8548C37.8444 21.8547 37.8444 21.855 37.8444 21.8548ZM37.8444 21.8548C37.8103 21.7246 37.7774 21.5978 37.7459 21.475M37.8444 21.8548C38.1062 21.4452 38.3677 21.0182 38.6282 20.5733M38.6377 20.6557C38.7586 20.476 38.8763 20.3024 38.991 20.1347M38.6377 20.6557C38.6345 20.6281 38.6314 20.6006 38.6282 20.5733M38.6377 20.6557C38.8499 22.5031 39.1401 24.9108 39.4548 27.4509M38.991 20.1347C39.2003 19.8284 39.3994 19.5419 39.5888 19.2736M38.991 20.1347C38.9719 20.1032 38.953 20.072 38.9343 20.0411M38.991 20.1347C39.2423 20.5497 39.5218 21.0201 39.8329 21.5505C39.9909 21.8199 40.1577 22.105 40.3323 22.4038M39.5888 19.2736C39.6726 19.1549 39.7544 19.0398 39.8344 18.9281M39.5888 19.2736C39.9074 20.0836 40.1785 20.8405 40.3834 21.5288M39.5888 19.2736C39.5585 19.1966 39.5278 19.1191 39.4967 19.0411M39.8344 18.9281C40.1523 18.4843 40.441 18.0945 40.7036 17.7505M39.8344 18.9281C40.0232 19.3045 40.2324 19.726 40.4636 20.1925M39.8344 18.9281C39.79 18.8395 39.7467 18.7535 39.7046 18.6699M40.7036 17.7505C40.8358 17.5772 40.9614 17.4155 41.0808 17.2644M40.7036 17.7505C40.6244 17.5927 40.5477 17.4396 40.4735 17.291M40.7036 17.7505C41.1211 18.5826 41.6085 19.545 42.1789 20.6592M41.0808 17.2644C42.3159 15.7009 42.8808 15.2704 43.2015 14.8116C43.3412 14.6118 43.4819 14.448 43.6082 14.5361M41.0808 17.2644C40.9894 17.0731 40.8971 16.8836 40.804 16.6962M41.0808 17.2644C41.5211 18.1866 41.9395 19.1486 42.3258 20.0969M43.6082 14.5361C43.7274 14.6192 43.8338 14.9262 43.9146 15.6378C44.0066 16.4472 44.0687 17.7856 44.2577 20.0724M43.6082 14.5361C43.6915 15.7951 43.7823 17.1643 43.8784 18.6113M43.6082 14.5361C43.5577 13.7712 43.5099 13.0469 43.4653 12.3706C43.4573 12.2484 43.4493 12.128 43.4415 12.0091M44.2577 20.0724C44.3429 21.1038 44.454 22.3281 44.6053 23.7837M44.2577 20.0724C44.1183 19.523 43.9924 19.0364 43.8784 18.6113M44.2577 20.0724C44.2598 20.0809 44.262 20.0893 44.2641 20.0978C44.71 21.8566 45.2921 24.2567 45.9194 26.8755M44.6053 23.7837C44.6395 24.1125 44.6757 24.453 44.7142 24.8058M44.6053 23.7837C44.4198 22.732 44.2301 21.7909 44.0385 21.019M44.6053 23.7837C44.6719 24.1608 44.7379 24.5522 44.8032 24.955M44.7142 24.8058C44.7482 25.1182 44.784 25.4403 44.8217 25.7722M44.7142 24.8058C44.7437 24.855 44.7733 24.9048 44.8032 24.955M44.7142 24.8058C44.549 24.5295 44.3906 24.2675 44.2384 24.0181M44.8217 25.7722C44.892 26.3929 44.9689 27.0481 45.053 27.74C45.135 28.4151 45.2239 29.1243 45.3185 29.8604M44.8217 25.7722C44.6403 25.4236 44.4619 25.0804 44.2868 24.7432M44.8217 25.7722C44.8739 25.8726 44.9263 25.9734 44.979 26.0746M45.3185 29.8604C45.3241 29.9039 45.3297 29.9475 45.3354 29.9912M45.3185 29.8604C45.0626 28.572 44.753 27.2769 44.3661 25.93M45.3185 29.8604C45.3292 29.9139 45.3397 29.9674 45.3502 30.0209M45.3354 29.9912C45.3943 30.4486 45.4553 30.9162 45.5183 31.3922M45.3354 29.9912C45.3403 30.0011 45.3452 30.011 45.3502 30.0209M45.3354 29.9912C45.0656 29.4487 44.7963 28.9072 44.5293 28.3706M45.5183 31.3922C45.8127 33.6203 46.1477 36.0334 46.4937 38.4575M45.5183 31.3922C45.2236 30.8752 44.9257 30.3537 44.6272 29.8324M45.5183 31.3922C45.5564 31.4591 45.5945 31.526 45.6325 31.5927M46.4937 38.4575C46.584 39.0899 46.675 39.7231 46.7662 40.3539M46.4937 38.4575C46.3499 37.0423 46.1752 35.4993 45.9602 33.8372C45.8622 33.0788 45.7544 32.3335 45.6325 31.5927M46.4937 38.4575C46.6941 40.4298 46.8342 42.1538 46.9389 43.6058M46.7662 40.3539C46.9232 41.4398 47.0809 42.5187 47.2366 43.5749M46.7662 40.3539C46.6972 39.7785 46.6202 39.1231 46.5347 38.3858C46.3207 36.5419 46.0567 34.2146 45.7587 31.8145M46.7662 40.3539C47.0351 42.5971 47.182 43.6275 47.2366 43.5749M47.2366 43.5749C47.2725 43.8189 47.3084 44.0616 47.3441 44.3029M47.2366 43.5749C47.3001 43.5138 47.2388 41.9892 47.0996 39.205C47.023 37.6739 46.9228 35.7625 46.8099 33.6682M47.3441 44.3029C47.829 47.5805 48.288 50.5986 48.6383 52.8703C49.1718 56.3292 49.4367 57.946 49.5689 58.6847M47.3441 44.3029C47.8153 45.1116 48.2448 45.8413 48.6157 46.4624C50.9676 50.401 50.978 49.9851 50.6404 47.5483C50.5147 46.6412 50.3977 45.761 50.2895 44.9186M47.3441 44.3029C47.2121 44.0765 47.0769 43.8439 46.9389 43.6058M49.5689 58.6847C49.6709 59.2552 49.6938 59.3017 49.7 59.2684C49.7056 59.2388 49.6975 59.1447 49.5689 58.6847ZM49.5689 58.6847C49.3651 57.9561 48.8589 56.3097 47.6252 52.5484C47.1159 50.9955 46.4827 49.0832 45.7858 46.9779M45.7858 46.9779C45.3849 45.7669 44.9629 44.4921 44.5313 43.1852M45.7858 46.9779C45.8303 47.6271 45.8722 48.2371 45.9112 48.8022C46.4966 57.2789 46.4264 55.6996 45.5597 49.5604C45.3134 47.816 44.9433 45.5308 44.5313 43.1852M45.7858 46.9779C45.7452 46.3854 45.7025 45.7602 45.6579 45.1068M44.5313 43.1852C44.3835 42.7376 44.2345 42.2863 44.0849 41.8325M44.5313 43.1852C44.4915 42.9589 44.4514 42.732 44.4109 42.505M44.0849 41.8325C43.5214 40.1232 42.9483 38.3785 42.3902 36.6665M44.0849 41.8325C44.196 42.0612 44.3047 42.2856 44.4109 42.505M44.0849 41.8325C43.5513 40.7333 42.9651 39.5336 42.3597 38.2994M42.3902 36.6665C42.3758 36.6223 42.3614 36.5782 42.347 36.5341M42.3902 36.6665C42.3798 37.2351 42.3697 37.7815 42.3597 38.2994M42.3902 36.6665C42.3908 36.6314 42.3915 36.5962 42.3921 36.5609M42.347 36.5341C42.3376 36.5052 42.3282 36.4763 42.3188 36.4474M42.347 36.5341C42.3622 36.5431 42.3772 36.552 42.3921 36.5609M42.347 36.5341C41.9881 36.3201 41.5849 36.0782 41.135 35.8081M42.3188 36.4474C42.0652 35.6687 41.8148 34.8975 41.5702 34.14M42.3188 36.4474C41.9722 36.2368 41.5618 35.9884 41.0811 35.6985M42.3188 36.4474C42.344 36.4627 42.3689 36.4778 42.3934 36.4927M41.5702 34.14C41.5366 34.0361 41.5031 33.9324 41.4698 33.8291M41.5702 34.14C41.846 34.6363 42.1262 35.1388 42.4087 35.6437M41.5702 34.14C41.5294 34.0666 41.4887 33.9933 41.4481 33.9202M41.4698 33.8291C41.1557 32.8555 40.8516 31.9065 40.5625 30.996M41.4698 33.8291C41.4625 33.8594 41.4553 33.8898 41.4481 33.9202M41.4698 33.8291C41.6178 33.2087 41.7702 32.5939 41.9267 31.9917C42.0105 31.6694 42.2009 32.0937 42.4551 33.0132M40.5625 30.996C40.4334 30.5891 40.3072 30.19 40.1844 29.7997M40.5625 30.996C40.5144 31.3513 40.4662 31.705 40.418 32.0554M40.5625 30.996C40.8695 28.7318 41.1763 26.3981 41.4879 24.388M40.1844 29.7997C40.0974 29.5229 40.0121 29.2506 39.9286 28.9833M40.1844 29.7997C40.1073 30.2721 40.0269 30.7372 39.9455 31.1929M40.1844 29.7997C40.4914 27.92 40.7461 25.9249 40.8041 23.9456C40.8114 23.6952 40.7924 23.4191 40.7501 23.1196M39.9286 28.9833C39.7772 28.4981 39.632 28.0291 39.494 27.579C39.4809 27.5361 39.4678 27.4934 39.4548 27.4509M39.9286 28.9833C40.0816 26.615 40.2257 24.2213 40.3323 22.4038M39.9286 28.9833C39.8966 29.4795 39.8641 29.9746 39.8315 30.4631M39.4548 27.4509C39.5777 28.4433 39.7043 29.4559 39.8315 30.4631M37.7459 21.475C37.5386 20.6673 37.3867 20.0181 37.2739 19.4911M37.7459 21.475C37.9747 20.7413 38.2068 19.9945 38.4398 19.2423M37.7459 21.475C37.6394 21.8166 37.5336 22.1553 37.4287 22.4904M37.2739 19.4911C37.055 18.4683 36.9836 17.9061 36.9417 17.5393C36.9384 17.5106 36.9353 17.4831 36.9324 17.4568M37.2739 19.4911C37.3827 19.1939 37.4298 18.9769 37.4099 18.8446C37.3437 18.4036 37.1933 17.9135 37.0714 17.4961M37.2739 19.4911C37.0172 20.1918 36.4173 21.338 35.5429 22.8703M36.9324 17.4568C36.8447 16.6653 36.9252 16.9903 37.0467 17.4112C37.0548 17.4391 37.063 17.4674 37.0714 17.4961M36.9324 17.4568C36.8101 17.4567 36.7241 17.565 36.653 17.7536C36.2392 18.8511 35.7653 20.5243 35.3002 22.5425M36.9324 17.4568C36.9742 17.4569 37.0203 17.4696 37.0714 17.4961M37.0714 17.4961C37.3421 17.6363 37.7559 18.1628 38.4398 19.2423M35.5429 22.8703C35.3811 23.1539 35.2099 23.4508 35.0297 23.7604M35.5429 22.8703C35.713 23.1446 35.9377 23.5681 36.2446 24.164M35.5429 22.8703C35.446 22.7139 35.3668 22.6061 35.3002 22.5425M35.0297 23.7604C34.9967 23.8171 34.9634 23.8742 34.9298 23.9318M35.0297 23.7604C34.9988 23.9045 34.9681 24.0499 34.9374 24.1966M35.0297 23.7604C35.1192 23.3425 35.2095 22.9359 35.3002 22.5425M34.9298 23.9318C34.3915 24.8541 33.7768 25.8865 33.0966 27.0192M34.9298 23.9318C34.9115 23.0466 34.9801 22.5931 35.1107 22.4934C35.1621 22.4542 35.2226 22.4683 35.3002 22.5425M34.9298 23.9318C34.9316 24.0161 34.9341 24.1043 34.9374 24.1966M33.0966 27.0192C32.776 27.5533 32.4408 28.1096 32.0922 28.6873M33.0966 27.0192C32.7292 26.7317 32.3039 26.4168 31.8195 26.0781M33.0966 27.0192C33.2647 27.1507 33.4206 27.2765 33.5645 27.3963M32.0922 28.6873C31.9167 28.9782 31.7377 29.2746 31.5555 29.5762M32.0922 28.6873C32.1754 28.6996 32.259 28.7117 32.3432 28.7233M32.0922 28.6873C31.7807 28.6409 31.4766 28.5897 31.1797 28.534M31.5555 29.5762C31.4924 29.6807 31.4289 29.7858 31.365 29.8916M31.5555 29.5762C31.8049 29.3025 32.0681 29.0192 32.3432 28.7233M31.5555 29.5762C31.4698 29.6702 31.3858 29.7631 31.3035 29.855M31.365 29.8916C31.3404 29.9323 31.3158 29.9731 31.2911 30.0139M31.365 29.8916C31.3445 29.8794 31.324 29.8672 31.3035 29.855M31.2911 30.0139C31.0969 30.3353 30.8993 30.6624 30.6983 30.9952C30.6874 31.0131 30.6766 31.0311 30.6659 31.0489M31.2911 30.0139C31.2626 29.9976 31.2341 29.9812 31.2055 29.9648M30.6659 31.0489C29.0588 33.723 28.8398 35.1095 28.5301 35.6078C28.2183 36.1094 27.9486 35.7229 27.7105 35.3793C27.6648 35.3133 27.5809 35.2056 27.4607 35.0583M30.6659 31.0489C30.7001 30.8558 30.7359 30.6604 30.7733 30.4629M27.4607 35.0583C27.4023 34.9867 27.3353 34.9057 27.26 34.8156M27.4607 35.0583C27.6667 34.6803 27.9677 34.0303 28.4519 32.9124M27.4607 35.0583C27.2161 35.5073 27.1057 35.5725 26.9819 35.5822C26.7534 35.6002 26.2014 34.8823 25.3798 33.6006M27.26 34.8156C27.1625 34.6991 27.051 34.5672 26.9259 34.4206M27.26 34.8156C27.3478 34.8175 27.427 34.7118 27.4897 34.4609C27.5692 33.6 27.6987 32.6994 27.8071 31.8185M27.26 34.8156C27.1563 34.8134 27.0405 34.6611 26.9259 34.4206M26.9259 34.4206C26.6006 34.0392 26.1838 33.558 25.6838 32.9863M26.9259 34.4206C26.8783 34.3207 26.831 34.2057 26.7847 34.0799C26.577 33.5151 26.3981 32.7411 26.2207 31.9134M25.6838 32.9863C25.071 32.2857 24.3333 31.4492 23.4858 30.4936M25.6838 32.9863C25.8522 32.6473 26.031 32.2901 26.2207 31.9134M25.6838 32.9863C25.5785 33.1981 25.4772 33.4028 25.3798 33.6006M23.4858 30.4936C23.4241 30.4239 23.3617 30.3537 23.2988 30.2828M23.4858 30.4936C24.2181 31.7299 24.8541 32.7806 25.3798 33.6006M23.4858 30.4936C23.4285 30.3967 23.3706 30.2988 23.312 30.1997M23.2988 30.2828C23.0606 30.0144 22.8142 29.7371 22.5598 29.4511M23.2988 30.2828C23.2473 30.6073 23.1979 30.9208 23.151 31.2217C23.1399 31.2929 23.129 31.3634 23.1181 31.4332M23.2988 30.2828C23.3032 30.2552 23.3076 30.2275 23.312 30.1997M22.5598 29.4511C22.0784 28.91 21.5685 28.338 21.0323 27.7376M22.5598 29.4511C22.7343 29.5703 22.9043 29.683 23.0694 29.7882M22.5598 29.4511C21.9056 29.004 21.1881 28.4645 20.4262 27.8772M21.0323 27.7376C19.9687 26.5466 18.8017 25.2438 17.5481 23.8481C17.1302 23.3828 16.7549 22.933 16.4178 22.5017M21.0323 27.7376C21.3998 27.9003 21.7738 28.0633 22.1539 28.2264M21.0323 27.7376C20.6322 27.5605 20.2398 27.3839 19.8553 27.2082M16.4178 22.5017C16.0469 22.0272 15.7222 21.5749 15.4375 21.1487M16.4178 22.5017C16.4761 22.2306 16.5338 21.9901 16.5923 21.7803M15.4375 21.1487C15.3441 21.0088 15.2551 20.8718 15.1701 20.7377M15.4375 21.1487C15.8 21.3463 16.186 21.5575 16.5923 21.7803M15.4375 21.1487C15.3912 21.1234 15.3452 21.0984 15.2997 21.0735C15.0735 20.9503 14.8533 20.8315 14.6387 20.7168M15.1701 20.7377C15.0281 20.5135 14.8975 20.2976 14.7775 20.0905M15.1701 20.7377C14.9898 20.718 14.8125 20.7106 14.6387 20.7168M15.1701 20.7377C15.5621 20.7805 15.9679 20.8817 16.3807 21.0278M14.7775 20.0905C14.5215 19.649 14.3132 19.2476 14.143 18.8925M14.7775 20.0905C14.9968 20.2182 15.224 20.3508 15.4595 20.4885C15.7541 20.6607 16.0615 20.8407 16.3807 21.0278M14.143 18.8925C14.1162 18.8366 14.0903 18.7819 14.0654 18.7283M14.143 18.8925C14.2493 18.9396 14.3568 18.9876 14.4653 19.0365M14.143 18.8925C13.8051 18.743 13.4784 18.6028 13.1643 18.4713M14.0654 18.7283C13.6535 17.8441 13.4878 17.2781 13.3996 17.1364C13.3686 17.0865 13.2902 17.175 13.2007 18.0683M14.0654 18.7283C13.7683 18.5001 13.4799 18.2799 13.2007 18.0683M14.0654 18.7283C14.197 18.8295 14.3303 18.9322 14.4653 19.0365M13.2007 18.0683C13.1888 18.1877 13.1766 18.3215 13.1643 18.4713M13.2007 18.0683C13.1743 18.0483 13.148 18.0283 13.1217 18.0084M13.1643 18.4713C13.163 18.4875 13.1617 18.5039 13.1603 18.5204M13.1643 18.4713C13.1617 18.4702 13.1591 18.4692 13.1566 18.4681M13.1603 18.5204C13.1591 18.5029 13.1578 18.4855 13.1566 18.4681M13.1168 19.1281C13.102 19.359 13.0871 19.6157 13.0724 19.9007M13.1168 19.1281C12.4927 18.7685 11.9576 18.4631 11.4993 18.2039M13.1168 19.1281C13.1459 19.1448 13.1751 19.1617 13.2045 19.1786M13.0724 19.9007C13.0513 20.3092 13.0306 20.7761 13.0105 21.3094M13.0724 19.9007C13.1318 19.9308 13.1917 19.9613 13.2521 19.9921M13.0724 19.9007C12.4622 19.5915 11.9063 19.3202 11.3966 19.0791M13.0105 21.3094C13.0069 21.4044 13.0034 21.5015 12.9998 21.6008M13.0105 21.3094C12.9492 21.359 12.889 21.4119 12.8299 21.4684M13.0105 21.3094C13.1065 21.2317 13.2052 21.1624 13.3064 21.1009M12.9998 21.6008C12.9929 21.7954 12.9861 21.9984 12.9794 22.2099M12.9998 21.6008C12.9433 21.5568 12.8866 21.5126 12.8299 21.4684M12.9998 21.6008C13.113 21.6889 13.2257 21.7765 13.3379 21.8636M12.9794 22.2099C12.9748 22.3578 12.9701 22.51 12.9656 22.6665M12.9794 22.2099C13.1054 22.3032 13.2326 22.3975 13.3609 22.4927M12.9794 22.2099C12.8145 22.0878 12.6516 21.9673 12.4908 21.8486M12.9656 22.6665C12.9597 22.8685 12.9539 23.0777 12.9482 23.2944M12.9656 22.6665C13.1036 22.7734 13.2408 22.8797 13.3771 22.985M12.9656 22.6665C12.7414 22.4928 12.5153 22.3172 12.2878 22.1403M12.9482 23.2944C12.9445 23.4358 12.9409 23.5804 12.9373 23.7283M12.9482 23.2944C12.618 23.1315 12.2804 22.9696 11.9354 22.8088M12.9482 23.2944C13.098 23.3683 13.2462 23.4424 13.393 23.5167M12.9373 23.7283C12.9371 23.7365 12.9369 23.7447 12.9367 23.7529C12.9343 23.853 12.9319 23.9545 12.9295 24.0575M12.9373 23.7283C13.0898 23.8128 13.246 23.8987 13.4058 23.9859M12.9373 23.7283C12.5382 23.5073 12.1642 23.2961 11.8168 23.0965M12.9295 24.0575C12.9109 24.8543 12.8928 25.7382 12.8751 26.6867M12.9295 24.0575C12.5666 23.7461 12.1903 23.4418 11.7986 23.144M12.9295 24.0575C13.0952 24.1998 13.258 24.3435 13.4183 24.4888M12.8751 26.6867C12.752 33.2965 12.6481 43.0448 12.5237 48.3083C12.3791 54.4248 12.2103 54.1161 11.5848 47.375C11.0369 41.4705 10.1425 30.6384 11.3092 24.9074M12.8751 26.6867C13.0786 26.9151 13.2802 27.1404 13.4796 27.3622M12.8751 26.6867C12.3644 26.1132 11.8414 25.5193 11.3092 24.9074M11.3092 24.9074C11.4437 24.2467 11.6056 23.6537 11.7986 23.144M11.3092 24.9074C11.1501 24.7244 10.9901 24.5398 10.8295 24.3537M11.7986 23.144C11.8047 23.1281 11.8107 23.1123 11.8168 23.0965M11.7986 23.144C11.6854 23.0579 11.5708 22.9723 11.4549 22.8873M11.8168 23.0965C11.8551 22.9973 11.8946 22.9014 11.9354 22.8088M11.8168 23.0965C11.6928 23.0253 11.5721 22.9555 11.4549 22.8873M11.9354 22.8088C11.9356 22.8082 11.9359 22.8076 11.9362 22.807C12.0448 22.5604 12.1623 22.3387 12.2878 22.1403M11.9354 22.8088C11.8755 22.7809 11.8153 22.753 11.755 22.7251C11.5057 22.61 11.2625 22.5037 11.0331 22.4114M12.2878 22.1403C12.3533 22.0368 12.421 21.9396 12.4908 21.8486M12.2878 22.1403C11.9131 21.8488 11.5348 21.5538 11.156 21.2577M12.4908 21.8486C12.599 21.7074 12.7121 21.581 12.8299 21.4684M12.4908 21.8486C12.0424 21.5175 11.61 21.1996 11.1951 20.8956M12.8299 21.4684C12.3127 21.0653 11.7879 20.6544 11.2656 20.2498M13.3064 21.1009C13.3173 21.347 13.3278 21.6011 13.3379 21.8636M13.3064 21.1009C13.2891 20.7114 13.271 20.3422 13.2521 19.9921M16.3807 21.0278C16.5181 21.0764 16.6563 21.13 16.7949 21.1881M16.3807 21.0278C16.5076 21.1022 16.6364 21.1777 16.7669 21.2543M16.7949 21.1881C17.1545 21.3386 17.5175 21.5193 17.8798 21.7216M16.7949 21.1881C16.8347 21.0975 16.8755 21.0194 16.9176 20.9539M16.7949 21.1881C16.7855 21.2094 16.7762 21.2315 16.7669 21.2543M17.8798 21.7216C18.1226 21.8571 18.365 22.0023 18.6057 22.1546M17.8798 21.7216C17.7425 21.6087 17.6025 21.4957 17.4597 21.3826C17.2771 21.2379 17.0963 21.095 16.9176 20.9539M17.8798 21.7216C18.1272 21.9249 18.3659 22.1277 18.5964 22.3296M18.6057 22.1546C19.1635 22.5076 19.7123 22.8986 20.2356 23.2956M18.6057 22.1546C18.6534 22.2336 18.7022 22.3157 18.7523 22.401C18.7584 22.4114 18.7645 22.4217 18.7706 22.4321M18.6057 22.1546C17.7733 20.7774 17.2935 20.3677 16.9176 20.9539M20.2356 23.2956C20.9355 23.8265 21.59 24.3681 22.16 24.8433C22.1807 24.8606 22.2012 24.8778 22.2217 24.8949M20.2356 23.2956C19.7345 23 19.2452 22.7116 18.7706 22.4321M20.2356 23.2956C20.8975 23.6861 21.5801 24.0892 22.277 24.5012M22.2217 24.8949C22.8596 25.4296 23.4224 25.944 23.9237 26.4424M22.2217 24.8949C22.8119 25.2239 23.4111 25.5586 24.0143 25.8964M22.2217 24.8949C21.4804 24.4817 20.7532 24.0775 20.0504 23.6878M23.9237 26.4424C24.9373 27.45 25.6993 28.3918 26.322 29.3012M23.9237 26.4424C23.8463 26.9095 23.7706 27.3682 23.6973 27.8159M23.9237 26.4424C23.9536 26.2616 23.9839 26.0795 24.0143 25.8964M26.322 29.3012C26.5681 29.6606 26.7925 30.0151 27.002 30.3665M26.322 29.3012C26.4421 28.6513 26.5542 28.0105 26.6587 27.3819M26.322 29.3012C26.2962 29.4408 26.27 29.5808 26.2434 29.7213C25.9846 31.09 24.9092 30.9051 23.3498 29.9625M27.002 30.3665C27.2928 30.8544 27.555 31.3365 27.8071 31.8185M27.002 30.3665C27.3043 29.7689 27.623 29.1405 27.9544 28.489M27.002 30.3665C26.7518 30.8609 26.5128 31.3342 26.287 31.7819C26.2647 31.826 26.2426 31.8698 26.2207 31.9134M27.8071 31.8185C27.9336 32.0602 28.0575 32.3019 28.1812 32.5443C28.2842 32.7459 28.3738 32.8621 28.4519 32.9124M27.8071 31.8185C27.9542 30.6233 28.0625 29.4641 27.9544 28.489M28.4519 32.9124C28.6577 33.0451 28.7833 32.7203 28.8609 32.2975C28.8943 32.116 28.9522 31.8661 29.0339 31.5523M28.4519 32.9124C28.6213 32.5212 28.8132 32.0727 29.0313 31.5584C29.0322 31.5564 29.0331 31.5543 29.0339 31.5523M29.0339 31.5523C29.0428 31.5183 29.0519 31.4836 29.0613 31.4481M29.0339 31.5523C29.046 31.5238 29.0581 31.4952 29.0704 31.4664M29.0613 31.4481C29.2154 30.8674 29.4444 30.0869 29.7445 29.1301M29.0613 31.4481C29.0643 31.4543 29.0673 31.4604 29.0704 31.4664M29.0613 31.4481C29.0045 31.3315 28.95 31.1838 28.8969 31.0031C28.6771 30.2563 28.5093 29.3603 28.3821 28.3561M29.7445 29.1301C29.7621 29.074 29.7799 29.0172 29.798 28.9599M29.7445 29.1301C29.8278 29.1776 29.9108 29.2249 29.9936 29.2721M29.7445 29.1301C29.2969 28.8752 28.842 28.6168 28.3821 28.3561M29.798 28.9599C29.8391 28.8296 29.8815 28.6963 29.9251 28.5599M29.798 28.9599C29.3185 28.6749 28.8355 28.388 28.3508 28.1002M29.798 28.9599C29.8852 29.0117 29.9723 29.0635 30.0593 29.1151M29.9251 28.5599C29.9541 28.4693 29.9836 28.3773 30.0137 28.2841M29.9251 28.5599C30.0153 28.6546 30.1055 28.5734 30.182 28.3241M29.9251 28.5599C29.9228 28.5575 29.9206 28.555 29.9183 28.5524C29.8218 28.4415 29.6887 28.3097 29.5211 28.1588M30.0137 28.2841C30.1172 27.963 30.2273 27.6261 30.3437 27.2742M30.0137 28.2841C30.0695 28.2976 30.1256 28.3109 30.182 28.3241M30.0137 28.2841C29.847 28.2437 29.6828 28.2019 29.5211 28.1588M30.3437 27.2742C30.5288 26.715 30.73 26.1176 30.947 25.4849M30.3437 27.2742C30.3865 26.7204 30.4024 25.9973 30.3765 25.1133M30.3437 27.2742C30.3068 27.752 30.2497 28.1037 30.182 28.3241M30.947 25.4849C31.649 23.4379 32.5161 21.0202 33.5342 18.3225C33.8787 17.4096 34.209 16.6287 34.5221 15.961M30.947 25.4849C30.7634 25.3634 30.5733 25.2395 30.3765 25.1133M30.947 25.4849C31.1153 25.5963 31.278 25.7056 31.4353 25.8128M34.5221 15.961C35.0117 14.9166 35.4588 14.1491 35.8511 13.5867M34.5221 15.961C34.9822 15.1241 35.4277 14.327 35.8511 13.5867M34.5221 15.961C33.2605 18.2558 31.8897 20.8503 30.569 23.3957M35.8511 13.5867C36.3592 12.858 36.7752 12.4736 37.072 12.2771C37.1483 12.2266 37.2237 12.1783 37.2981 12.1386M35.8511 13.5867C36.1925 12.9895 36.5195 12.4293 36.828 11.9149C36.8932 11.8062 36.9578 11.6991 37.022 11.5937M37.2981 12.1386C37.4214 12.0727 37.542 12.0305 37.6594 12.0415M37.2981 12.1386C37.0712 12.6093 36.8452 13.0859 36.6215 13.5667C36.4546 13.9254 36.2893 14.2855 36.1259 14.6467M37.2981 12.1386C37.3431 12.0452 37.3881 11.9521 37.4332 11.8593M37.6594 12.0415C37.7736 12.0522 37.8848 12.1133 37.9924 12.2519C38.0424 12.3164 38.0916 12.3979 38.1586 12.5277M37.6594 12.0415C37.5839 11.9766 37.5085 11.9158 37.4332 11.8593M37.6594 12.0415C37.8256 12.1845 37.9921 12.3472 38.1586 12.5277M38.1586 12.5277C38.3487 12.8958 38.6828 13.652 39.5907 15.5071M38.1586 12.5277C38.7107 13.1263 39.2624 13.9195 39.7984 14.8289M39.5907 15.5071C39.8391 16.0146 40.1304 16.6044 40.4735 17.291M39.5907 15.5071C39.6603 15.2803 39.7295 15.0541 39.7984 14.8289M39.5907 15.5071C39.4021 16.1223 39.2116 16.7424 39.0203 17.3631M40.4735 17.291C40.5854 17.0898 40.6956 16.8914 40.804 16.6962M40.4735 17.291C40.2255 17.7369 39.9691 18.197 39.7046 18.6699M42.1789 20.6592C42.1969 20.6944 42.2151 20.7299 42.2333 20.7654C42.2589 20.8154 42.2847 20.8657 42.3106 20.9163M42.1789 20.6592C42.1767 20.6684 42.1744 20.6776 42.1722 20.6869M42.1789 20.6592C42.2277 20.4572 42.2767 20.2693 42.3258 20.0969M42.3106 20.9163C42.4263 21.142 42.5452 21.3736 42.6672 21.6107M42.3106 20.9163C42.4251 21.1047 42.5446 21.2981 42.6696 21.4989M42.3106 20.9163C42.2636 20.839 42.2175 20.7626 42.1722 20.6869M42.6672 21.6107C42.938 22.1372 43.2237 22.6909 43.5222 23.2679M42.6672 21.6107C42.6477 22.4985 42.6279 23.4758 42.608 24.5092M42.6672 21.6107C42.668 21.5733 42.6688 21.536 42.6696 21.4989M43.5222 23.2679C43.7688 23.7445 44.0241 24.2371 44.2868 24.7432M43.5222 23.2679C43.4145 22.9568 43.3026 22.6419 43.186 22.3227M43.5222 23.2679C43.8392 24.1844 44.1185 25.0678 44.3661 25.93M44.2868 24.7432C44.3131 25.1368 44.3396 25.5326 44.3661 25.93M44.2868 24.7432C44.2706 24.5007 44.2545 24.2589 44.2384 24.0181M44.979 26.0746C45.4248 26.931 45.8874 27.8181 46.3617 28.7263M44.979 26.0746C44.921 25.6933 44.8624 25.3194 44.8032 24.955M44.979 26.0746C45.1937 27.4858 45.4002 28.9988 45.5944 30.5122M46.3617 28.7263C46.4277 28.8525 46.4938 28.9792 46.5602 29.1062M46.3617 28.7263C46.2126 28.1011 46.0648 27.4825 45.9194 26.8755M46.3617 28.7263C46.4385 29.0481 46.5156 29.3717 46.5929 29.6962M46.5602 29.1062C50.1145 35.9086 54.2744 43.8012 56.8713 48.792C60.6687 56.0902 60.9077 56.7745 60.9837 56.9403C61.0597 57.106 60.9655 56.7325 58.5243 51.7097C56.0832 46.687 51.298 37.0263 48.3631 31.385C47.676 30.0642 47.0556 28.9123 46.4929 27.8979M46.5602 29.1062C46.5712 29.3033 46.5821 29.5 46.5929 29.6962M46.5602 29.1062C46.5379 28.7045 46.5155 28.3014 46.4929 27.8979M46.4929 27.8979C46.2947 27.5405 46.1037 27.2002 45.9194 26.8755M46.4929 27.8979C46.2514 23.573 45.9991 19.209 45.8136 16.1826C45.4463 10.1902 45.3598 9.7826 45.1637 9.72761C44.9158 9.65808 44.3267 10.5042 43.4415 12.0091M45.9194 26.8755C45.5162 26.1651 45.1455 25.5297 44.8032 24.955M44.2384 24.0181C43.8495 23.3805 43.5013 22.8248 43.186 22.3227M44.2384 24.0181C44.1705 22.9992 44.1036 21.9966 44.0385 21.019M43.186 22.3227C43.0034 22.0319 42.8318 21.7592 42.6696 21.4989M43.186 22.3227C43.036 21.9121 42.8785 21.4944 42.7128 21.0687C42.7022 21.0417 42.6917 21.0147 42.6811 20.9876M42.6696 21.4989C42.6735 21.3248 42.6773 21.1543 42.6811 20.9876M42.1722 20.6869C41.6412 19.7995 41.2167 19.0015 40.82 18.0137C40.6685 17.6364 40.6086 17.8751 40.4636 20.1925M42.1722 20.6869C42.0302 21.2787 41.8898 21.9895 41.7506 22.7854M40.4636 20.1925C40.4395 20.5781 40.4131 21.0213 40.3834 21.5288M40.4636 20.1925C40.5538 20.3745 40.6474 20.5633 40.7444 20.7589C41.0503 21.3758 41.3883 22.0565 41.7506 22.7854M40.3834 21.5288C40.3794 21.5968 40.3754 21.6659 40.3713 21.7362C40.359 21.9485 40.346 22.1714 40.3323 22.4038M40.3834 21.5288C40.5569 22.1115 40.6829 22.6449 40.7501 23.1196M40.3323 22.4038C40.4672 22.6345 40.6066 22.8734 40.7501 23.1196M39.8315 30.4631C39.8212 30.6185 39.8108 30.7732 39.8004 30.9271M39.8315 30.4631C39.8601 30.6896 39.8888 30.9158 39.9174 31.1415M39.8004 30.9271C39.7613 31.5074 39.7221 32.0756 39.6832 32.6221M39.8004 30.9271C39.8392 30.9982 39.8782 31.0697 39.9174 31.1415M39.8004 30.9271C39.4487 30.2818 39.1156 29.6659 38.8073 29.09C38.3515 28.2388 37.9538 27.482 37.6059 26.8127M39.6832 32.6221C39.6782 32.6935 39.6731 32.7646 39.668 32.8353M39.6832 32.6221C39.6722 32.6813 39.6611 32.7403 39.6501 32.7991M39.6832 32.6221C39.7657 32.1805 39.8498 31.7269 39.9328 31.2634M39.668 32.8353C39.619 33.5209 39.5706 34.1696 39.5239 34.762M39.668 32.8353C39.8321 33.1673 39.9985 33.5041 40.1666 33.8444M39.668 32.8353C39.6621 32.8232 39.6561 32.8112 39.6501 32.7991M39.5239 34.762C39.5219 34.7874 39.5199 34.8126 39.518 34.8378M39.5239 34.762C39.4536 34.7198 39.3823 34.677 39.31 34.6337M39.5239 34.762C39.6841 34.8581 39.8392 34.9513 39.9893 35.0414M39.518 34.8378C39.4833 35.2754 39.4496 35.6813 39.4172 36.0476C39.1089 39.5309 38.9334 39.2043 38.8899 38.8252C38.7813 37.8799 38.9858 36.4443 39.2971 34.7056M39.518 34.8378C39.6753 34.932 39.8288 35.024 39.9782 35.1136M39.518 34.8378C39.4452 34.7942 39.3716 34.7501 39.2971 34.7056M39.2971 34.7056C39.3014 34.6817 39.3057 34.6577 39.31 34.6337M39.2971 34.7056C38.8619 34.4452 38.3976 34.1681 37.9028 33.874M39.31 34.6337C39.4144 34.053 39.5303 33.4392 39.6501 32.7991M39.31 34.6337C39.2745 34.6123 39.2387 34.5909 39.2027 34.5693C38.796 34.3254 38.3603 34.0645 37.8994 33.7887M39.6501 32.7991C38.9342 31.3508 38.2632 29.9964 37.6972 28.855M39.9328 31.2634C39.9371 31.2399 39.9413 31.2164 39.9455 31.1929M39.9328 31.2634C39.9277 31.2228 39.9225 31.1821 39.9174 31.1415M39.9328 31.2634C40.0283 32.0159 40.1237 32.7615 40.2175 33.4896M39.9455 31.1929C40.0998 31.4755 40.2575 31.7633 40.418 32.0554M39.9455 31.1929C39.9361 31.1757 39.9267 31.1586 39.9174 31.1415M40.7501 23.1196C40.9858 23.5241 41.2326 23.9483 41.4879 24.388M39.4967 19.0411C39.3193 18.5968 39.1284 18.1373 38.9272 17.6651M39.4967 19.0411C39.5665 18.9166 39.6358 18.7928 39.7046 18.6699M39.4967 19.0411C39.3148 19.3656 39.1291 19.6958 38.9399 20.0312C38.938 20.0345 38.9361 20.0378 38.9343 20.0411M38.9272 17.6651C38.7775 17.314 38.6221 16.9559 38.4621 16.5918M38.9272 17.6651C38.9582 17.5645 38.9893 17.4638 39.0203 17.3631M38.9272 17.6651C38.7744 18.1606 38.6213 18.6561 38.4685 19.1494M38.4621 16.5918C38.1366 15.8509 37.7923 15.0852 37.4395 14.3033C37.0375 13.4123 36.769 13.3557 36.1259 14.6467M38.4621 16.5918C38.5767 16.6367 38.7574 16.8943 39.0203 17.3631M38.4621 16.5918C38.221 16.4974 38.2727 17.3451 38.4685 19.1494M36.1259 14.6467C35.8442 15.212 35.4907 16.0358 35.0226 17.1611C34.1131 19.3475 32.7359 22.6819 31.4353 25.8128M36.1259 14.6467C34.3933 18.4753 32.8658 22.4276 31.8195 26.0781M31.4353 25.8128C31.0707 26.6903 30.7122 27.5518 30.3717 28.3676M31.4353 25.8128C31.5673 25.9027 31.6953 25.9912 31.8195 26.0781M30.3717 28.3676C30.2657 28.6215 30.1614 28.871 30.0593 29.1151M30.3717 28.3676C30.6349 28.4267 30.9042 28.4823 31.1797 28.534M30.3717 28.3676C30.3081 28.3533 30.2449 28.3388 30.182 28.3241M30.0593 29.1151C30.0373 29.1677 30.0154 29.22 29.9936 29.2721M30.0593 29.1151C30.3535 29.29 30.6463 29.4641 30.9371 29.6371M29.9936 29.2721C29.6573 30.0754 29.3452 30.8178 29.0704 31.4664M29.9936 29.2721C30.3014 29.4476 30.6055 29.6213 30.9051 29.7928M29.0704 31.4664C29.3598 32.0411 29.7129 31.8225 30.2784 31.0782C30.4317 30.8764 30.5971 30.6718 30.7733 30.4629M25.3798 33.6006C25.3015 33.7594 25.2258 33.9138 25.1524 34.0639M23.312 30.1997C23.2322 30.0646 23.1514 29.9274 23.0694 29.7882M23.312 30.1997C23.3245 30.1212 23.3371 30.0422 23.3498 29.9625M23.0694 29.7882C22.7775 29.2924 22.4721 28.771 22.1539 28.2264M23.0694 29.7882C23.1645 29.8488 23.258 29.9069 23.3498 29.9625M22.1539 28.2264C21.2761 26.7239 20.3012 25.0451 19.2454 23.242M22.1539 28.2264C22.188 28.241 22.2221 28.2556 22.2563 28.2702C22.8365 28.5184 23.2577 28.6646 23.5488 28.7264M19.2454 23.242C19.1094 23.0098 18.9722 22.7756 18.8336 22.5394M19.2454 23.242C19.5097 23.3882 19.7782 23.5369 20.0504 23.6878M19.2454 23.242C18.2979 22.7178 17.4046 22.2257 16.5923 21.7803M18.8336 22.5394C18.8126 22.5037 18.7916 22.4679 18.7706 22.4321M18.8336 22.5394C18.7555 22.4696 18.6764 22.3996 18.5964 22.3296M18.8336 22.5394C19.2677 22.9276 19.6721 23.3115 20.0504 23.6878M18.7706 22.4321C18.7123 22.3978 18.6542 22.3636 18.5964 22.3296M16.9176 20.9539C16.0514 20.27 15.2315 19.6283 14.4653 19.0365M16.7669 21.2543C16.7071 21.4007 16.6493 21.576 16.5923 21.7803M16.7669 21.2543C17.3445 21.5931 17.9566 21.9529 18.5964 22.3296M16.1341 24.0073C16.1062 24.1687 16.0777 24.3356 16.0489 24.5079M16.1341 24.0073C15.6797 23.6507 15.1903 23.2745 14.6661 22.8805C14.2367 22.5578 13.7916 22.2156 13.3379 21.8636M16.0489 24.5079C16.025 24.6504 16.0008 24.7964 15.9764 24.9459M16.0489 24.5079C15.109 23.7961 14.2101 23.1233 13.3609 22.4927M15.9764 24.9459C15.975 24.9545 15.9736 24.963 15.9722 24.9716M15.9764 24.9459C15.9142 24.9081 15.8516 24.8704 15.7887 24.8328M15.9764 24.9459C16.7689 25.4272 17.5057 25.9206 18.1888 26.4289M15.9722 24.9716C15.9542 25.0822 15.936 25.1947 15.9177 25.3089M15.9722 24.9716C16.2564 25.1863 16.5281 25.3904 16.7849 25.5818C17.0159 25.7541 17.2348 25.9161 17.4418 26.0681M15.9722 24.9716C15.9116 24.9258 15.8504 24.8795 15.7887 24.8328M15.9177 25.3089C15.841 25.7874 15.7621 26.2972 15.682 26.8324M15.9177 25.3089C16.405 25.5567 16.9134 25.8103 17.4418 26.0681M15.9177 25.3089C15.0037 24.8443 14.164 24.3999 13.4058 23.9859M15.682 26.8324C15.5626 27.6307 15.4406 28.4857 15.3194 29.3785M15.682 26.8324C14.9792 26.0056 14.2327 25.2271 13.4183 24.4888M15.682 26.8324C15.9482 27.1456 16.2082 27.4657 16.4632 27.7932C18.0136 29.7845 20.351 33.3491 21.376 35.0813C22.0063 36.1464 19.3159 33.6918 15.3194 29.3785M15.3194 29.3785C14.9262 32.2766 14.5421 35.573 14.2854 38.6194C13.8197 44.1465 13.8005 48.6584 13.7391 45.3413C13.6868 42.5149 13.6044 33.9054 13.4796 27.3622M15.3194 29.3785C14.7322 28.7448 14.1168 28.0709 13.4796 27.3622M13.4796 27.3622C13.4602 26.3446 13.4398 25.3769 13.4183 24.4888M13.4183 24.4888C13.4158 24.3854 13.4133 24.2832 13.4108 24.182C13.4091 24.1162 13.4074 24.0509 13.4058 23.9859M13.4058 23.9859C13.4016 23.8271 13.3974 23.6707 13.393 23.5167M13.393 23.5167C13.3879 23.3362 13.3825 23.159 13.3771 22.985M13.393 23.5167C14.2414 23.9466 15.0394 24.3845 15.7887 24.8328M13.3771 22.985C13.3718 22.818 13.3664 22.6539 13.3609 22.4927M13.3771 22.985C14.2315 23.6456 15.0491 24.2726 15.7887 24.8328M13.3609 22.4927C13.3535 22.2779 13.3458 22.0682 13.3379 21.8636M13.2521 19.9921C13.2367 19.7085 13.2209 19.4375 13.2045 19.1786M13.1566 18.4681C13.1451 18.3098 13.1335 18.1566 13.1217 18.0084M13.1217 18.0084C13.0483 17.0856 12.9691 16.3569 12.8889 15.7816M12.8889 15.7816C12.7088 14.4895 12.5239 13.9716 12.3902 13.7679C12.3281 13.6735 12.1686 13.7998 11.9024 15.34M12.8889 15.7816C12.5208 15.6112 12.1916 15.4637 11.9024 15.34M12.8889 15.7816C14.9802 16.7502 18.3261 18.4622 22.72 20.8021M11.9024 15.34C11.1844 15.0327 10.7128 14.8712 10.5049 14.8653C10.086 14.8533 9.7177 14.9264 9.47531 15.1834C9.43544 15.2257 9.39907 15.2726 9.36411 15.3474M11.6629 16.9225C11.6254 17.1989 11.5864 17.4986 11.546 17.8233M11.546 17.8233C11.5306 17.9465 11.5151 18.0733 11.4993 18.2039M11.4993 18.2039C11.4773 18.3857 11.4549 18.5748 11.4321 18.7713C11.4204 18.8719 11.4086 18.9746 11.3966 19.0791M11.3966 19.0791C11.3546 19.4467 11.3108 19.8379 11.2656 20.2498M11.2656 20.2498C11.2425 20.4598 11.219 20.6752 11.1951 20.8956M11.1951 20.8956C11.1822 21.0149 11.1692 21.1356 11.156 21.2577M11.156 21.2577C11.116 21.63 11.075 22.0152 11.0331 22.4114M11.0331 22.4114C11.0274 22.4649 11.0218 22.5185 11.0161 22.5724M11.0331 22.4114C10.8406 22.334 10.6578 22.2664 10.4891 22.2118M11.0161 22.5724C11.0142 22.5904 11.0123 22.6084 11.0104 22.6264M11.0161 22.5724C10.8434 22.4511 10.6678 22.331 10.4891 22.2118M11.0161 22.5724C11.1645 22.6765 11.3107 22.7815 11.4549 22.8873M11.0104 22.6264C10.9516 23.1831 10.8912 23.7605 10.8295 24.3537M11.0104 22.6264C11.1525 22.7106 11.3008 22.7976 11.4549 22.8873M11.0104 22.6264C10.702 22.4439 10.4221 22.2748 10.1719 22.1209M10.8295 24.3537C10.6674 24.1659 10.5045 23.9766 10.341 23.7858C9.01095 22.2335 9.28105 21.9044 10.1719 22.1209M7.41563 48.9699C7.04913 49.9862 6.88085 49.6567 7.08964 45.1801M7.41563 48.9699C7.31096 47.7561 7.20149 46.4849 7.08964 45.1801M7.08964 45.1801C7.09915 44.9761 7.10945 44.7634 7.12055 44.5419M7.08964 45.1801C6.81948 42.0287 6.53539 38.681 6.27132 35.4715M7.12055 44.5419C7.12872 44.3788 7.13733 44.2109 7.14637 44.0381C7.23918 42.2648 7.37888 39.975 7.54092 37.4876M7.12055 44.5419C7.07108 43.9054 7.01524 43.0831 6.94889 42.0054C6.81776 39.875 6.64653 36.7513 6.51989 33.555M7.54092 37.4876C7.89479 32.0554 8.35518 25.6812 8.66631 21.6888C8.68059 21.5055 8.69454 21.3276 8.70817 21.1548M7.54092 37.4876C7.37315 32.2176 7.09504 25.0265 6.81951 18.797M8.70817 21.1548C8.70891 21.1454 8.70966 21.1359 8.7104 21.1265M8.70817 21.1548C8.66524 21.1178 8.66537 21.1075 8.7104 21.1265M8.7104 21.1265C8.75987 20.4996 8.80507 19.9413 8.84671 19.4437M8.84671 19.4437C8.85372 19.3599 8.86062 19.2779 8.86743 19.1976M8.84671 19.4437C8.19409 18.9287 7.56105 18.4273 6.9656 17.954M8.86743 19.1976C8.88874 18.9462 8.90909 18.7113 8.92858 18.4918M8.86743 19.1976C8.1405 18.6688 7.50976 18.2102 6.99019 17.8276M8.92858 18.4918C8.94425 18.3153 8.95937 18.1487 8.97399 17.9915M8.92858 18.4918C8.28301 18.028 7.66827 17.6119 7.10723 17.2751M8.97399 17.9915C9.01384 17.563 9.05 17.2036 9.08355 16.9011M8.97399 17.9915C8.25714 17.6838 7.66197 17.4351 7.12798 17.1848M9.08355 16.9011C9.08408 16.8963 9.08461 16.8916 9.08514 16.8868M9.08355 16.9011C9.13004 16.9207 9.18156 16.9416 9.23795 16.9639M9.08355 16.9011C8.96303 16.8503 8.87635 16.8081 8.82631 16.7735C8.81212 16.7638 8.85173 16.7714 9.08514 16.8868M9.08514 16.8868C9.1928 15.92 9.27375 15.5406 9.36411 15.3474M9.08514 16.8868C9.12894 16.9085 9.17957 16.934 9.23795 16.9639M9.36411 15.3474C8.55549 14.8525 8.06437 14.6601 7.95578 14.8365C7.73643 15.1926 7.42138 15.9228 7.12798 17.1848M22.72 20.8021C23.3564 21.141 24.0147 21.4931 24.6945 21.858M22.72 20.8021C21.3029 19.4934 19.4633 17.8718 17.0511 15.7562C14.6985 13.6929 13.2572 11.9771 11.064 10.0045C9.15982 8.29178 7.48803 6.78724 6.1059 5.51152M22.72 20.8021C23.4398 21.4669 24.0506 22.051 24.5721 22.5782M24.6945 21.858C25.1875 22.1227 25.6918 22.3941 26.2071 22.6721C26.573 22.8696 26.9269 23.0642 27.2688 23.2558M24.6945 21.858C24.6536 22.0981 24.6128 22.3383 24.5721 22.5782M24.6945 21.858C25.3195 18.1867 25.9592 14.5257 26.4133 11.9948C27.2894 7.1117 27.4269 6.71033 27.5348 6.66748C28.5653 6.25812 28.4025 11.1029 29.5126 17.4223C29.9643 19.9938 30.2095 22.1595 30.3184 23.8792M27.2688 23.2558C27.5393 23.4074 27.8022 23.5571 28.0578 23.7047M27.2688 23.2558C27.9409 18.0942 28.0638 14.6116 28.054 15.3084C28.0152 18.0656 27.9761 21.0104 28.0578 23.7047M27.2688 23.2558C27.1742 23.982 27.0688 24.7414 26.9513 25.527M28.0578 23.7047C28.7032 24.0776 29.3012 24.4373 29.8523 24.7816M28.0578 23.7047C28.0944 24.9135 28.1554 26.0719 28.2516 27.1404M29.8523 24.7816C29.9701 24.8552 30.0859 24.9281 30.1995 25.0003M29.8523 24.7816C30.0066 24.4822 30.1621 24.1812 30.3184 23.8792M29.8523 24.7816C29.4008 25.6571 28.959 26.5191 28.5334 27.3527M30.1995 25.0003C30.259 25.0382 30.318 25.0758 30.3765 25.1133M30.1995 25.0003C29.8023 26.686 29.5289 27.5084 28.8815 27.6232M30.1995 25.0003C30.2464 24.8011 30.2951 24.5899 30.3463 24.3664M30.3765 25.1133C30.3695 24.8759 30.3595 24.6268 30.3463 24.3664M31.8195 26.0781C31.5954 26.86 31.3934 27.6282 31.2162 28.3783C31.2039 28.4303 31.1917 28.4822 31.1797 28.534M33.5645 27.3963C33.8752 27.0523 34.1951 26.691 34.5219 26.3094M33.5645 27.3963C33.1381 27.8685 32.729 28.3083 32.3432 28.7233M34.2269 27.9836C34.882 28.6125 35.0402 28.9631 34.7299 28.9471C34.509 28.9357 34.2913 28.922 34.0767 28.9062M34.2269 27.9836C34.1758 28.2887 34.1257 28.5964 34.0767 28.9062M34.0767 28.9062C33.9524 29.6929 33.8355 30.4929 33.7283 31.2987M31.1797 28.534C31.0929 28.9073 31.0122 29.2752 30.9371 29.6371M29.5211 28.1588C29.1037 28.0474 28.7026 27.927 28.3167 27.7987M29.5211 28.1588C29.3452 28.0005 29.1313 27.8213 28.8815 27.6232M28.3167 27.7987C28.3136 27.7977 28.3105 27.7966 28.3074 27.7956M28.3167 27.7987C28.3277 27.9002 28.3391 28.0007 28.3508 28.1002M28.3167 27.7987C28.3161 27.7928 28.3155 27.7869 28.3148 27.7811M28.3074 27.7956C28.1286 27.7361 27.9532 27.6749 27.7809 27.6121M28.3074 27.7956C28.3099 27.7908 28.3124 27.7859 28.3148 27.7811M28.3074 27.7956C28.2709 27.8672 28.2346 27.9385 28.1984 28.0096M27.7809 27.6121C27.5327 27.5217 27.2912 27.4281 27.056 27.3317M27.7809 27.6121C27.7564 27.5231 27.7314 27.4356 27.7058 27.3493M27.7809 27.6121C27.7963 27.6679 27.8114 27.7243 27.8265 27.7813C27.8273 27.7843 27.8281 27.7873 27.8288 27.7903M27.056 27.3317C26.933 27.2813 26.8118 27.2301 26.6923 27.1782M27.056 27.3317C26.9379 27.2616 26.8197 27.1915 26.7016 27.1215M27.056 27.3317C27.3137 27.4846 27.5714 27.6375 27.8288 27.7903M26.6923 27.1782C25.6957 26.7453 24.8178 26.2629 24.0365 25.7632M26.6923 27.1782C26.6954 27.1593 26.6985 27.1404 26.7016 27.1215M26.6923 27.1782C26.6812 27.2459 26.67 27.3139 26.6587 27.3819M24.0365 25.7632C23.3875 25.3482 22.8052 24.9213 22.277 24.5012M24.0365 25.7632C24.0291 25.8077 24.0217 25.852 24.0143 25.8964M24.0365 25.7632C24.0476 25.6963 24.0588 25.6292 24.07 25.562M22.277 24.5012C20.7851 23.3147 19.7242 22.1821 18.8091 21.5222C17.793 20.7894 21.2004 23.2333 24.1334 25.1825M22.277 24.5012C22.8657 24.8493 23.4647 25.2036 24.07 25.562M24.1334 25.1825C25.1206 25.8386 26.054 26.4387 26.7469 26.8427M24.1334 25.1825C24.1122 25.3094 24.091 25.4359 24.07 25.562M24.1334 25.1825C24.1741 24.9387 24.2152 24.6934 24.2566 24.447M26.7469 26.8427C26.918 26.9424 27.0744 27.0302 27.2133 27.104C27.39 27.1977 27.5537 27.2797 27.7058 27.3493M26.7469 26.8427C26.7846 26.609 26.8213 26.3773 26.8569 26.1475M26.7469 26.8427C26.732 26.9353 26.7169 27.0283 26.7016 27.1215M27.7058 27.3493C27.9242 27.4493 28.1186 27.5241 28.293 27.5723M27.7058 27.3493C27.6234 27.0715 27.5346 26.8068 27.4342 26.549M28.293 27.5723C28.3319 27.5831 28.3699 27.5925 28.4068 27.6006M28.293 27.5723C28.3001 27.6423 28.3074 27.7119 28.3148 27.7811M28.293 27.5723C28.2785 27.4301 28.2647 27.2861 28.2516 27.1404M28.4068 27.6006C28.5857 27.6399 28.7422 27.6479 28.8815 27.6232M28.4068 27.6006C28.4489 27.5183 28.491 27.4356 28.5334 27.3527M28.4068 27.6006C28.3761 27.6609 28.3454 27.7211 28.3148 27.7811M28.8815 27.6232C28.7723 27.5366 28.6562 27.4463 28.5334 27.3527M30.3463 24.3664C30.4111 24.0835 30.4799 23.781 30.5545 23.4583C30.5593 23.4375 30.5642 23.4166 30.569 23.3957M30.3463 24.3664C30.3382 24.2082 30.329 24.0458 30.3184 23.8792M30.569 23.3957C31.5044 19.3574 33.3222 12.2773 35.6624 11.434C36.1022 11.2755 36.5585 11.3448 37.022 11.5937M30.569 23.3957C30.4853 23.5571 30.4017 23.7183 30.3184 23.8792M37.022 11.5937C37.1585 11.6671 37.2957 11.756 37.4332 11.8593M37.022 11.5937C37.8668 10.2051 38.6187 9.1023 39.2786 8.20945M37.4332 11.8593C38.0526 10.5828 38.677 9.35354 39.2786 8.20945M39.7984 14.8289C40.1414 15.4107 40.4779 16.0399 40.804 16.6962M39.7984 14.8289C40.7501 11.7188 41.6376 8.77772 42.2891 6.56968C42.5366 5.73069 42.7501 4.99791 42.9304 4.36385M40.804 16.6962C41.8539 14.8057 42.7405 13.2008 43.4415 12.0091M42.3258 20.0969C42.4476 20.3957 42.5661 20.6932 42.6811 20.9876M42.3258 20.0969C42.4592 19.6294 42.594 19.2759 42.7307 19.0639M42.6811 20.9876C42.6853 20.8061 42.6894 20.629 42.6935 20.4569C42.7057 19.9467 42.7177 19.482 42.7307 19.0639M44.3661 25.93C44.4201 26.7381 44.4746 27.553 44.5293 28.3706M45.3502 30.0209C45.4524 30.5446 45.546 31.0675 45.6325 31.5927M45.3502 30.0209C45.4316 30.1846 45.513 30.3484 45.5944 30.5122M45.6325 31.5927C45.6746 31.6667 45.7167 31.7407 45.7587 31.8145M46.9389 43.6058C47.1478 46.5039 47.2154 48.3183 47.3386 48.861C47.3864 49.0715 47.3708 48.7326 45.6579 45.1068M46.9389 43.6058C46.4473 42.7582 45.9191 41.8403 45.371 40.8815M45.6579 45.1068C45.574 44.9291 45.486 44.7435 45.3937 44.5498C45.1039 43.9412 44.7723 43.2518 44.4109 42.505M45.6579 45.1068C45.5688 43.7999 45.4724 42.3799 45.371 40.8815M44.4109 42.505C44.1064 40.7966 43.7839 39.0807 43.4747 37.5415M42.3597 38.2994C41.9567 37.4777 41.5452 36.6408 41.135 35.8081M42.3597 38.2994C42.3478 38.9242 42.3361 39.5076 42.325 40.0386C42.2208 44.9827 42.1559 45.3707 42.005 45.1112C41.8542 44.8517 41.6243 43.9712 40.9072 38.7146C40.8438 38.2503 40.7769 37.754 40.7073 37.2319M41.135 35.8081C41.117 35.7715 41.099 35.735 41.0811 35.6985M41.135 35.8081C41.1001 35.7871 41.065 35.766 41.0295 35.7447M41.0811 35.6985C41.0716 35.6793 41.0621 35.6601 41.0526 35.6408M41.0811 35.6985C41.069 35.6913 41.0568 35.6839 41.0447 35.6766M41.0526 35.6408C40.7994 35.1268 40.5469 34.6149 40.2976 34.1097M41.0526 35.6408C41.05 35.6527 41.0473 35.6647 41.0447 35.6766M41.0526 35.6408C41.1805 35.0664 41.3124 34.4911 41.4481 33.9202M40.2976 34.1097C40.2538 34.0211 40.2101 33.9326 40.1666 33.8444M40.2976 34.1097C40.271 33.9046 40.2443 33.6978 40.2175 33.4896M40.2976 34.1097C40.3508 34.5212 40.4034 34.9258 40.4552 35.3216M40.1666 33.8444C40.1076 34.2531 40.0485 34.653 39.9893 35.0414M40.1666 33.8444C40.1835 33.7268 40.2005 33.6085 40.2175 33.4896M37.6972 28.855C37.5981 28.6553 37.5023 28.4621 37.41 28.276C37.4016 28.2591 37.3932 28.2422 37.3849 28.2254M37.6972 28.855C37.7608 30.3318 37.8295 32.0209 37.8994 33.7887M37.6972 28.855C37.6653 28.1155 37.6347 27.4291 37.6059 26.8127M37.3849 28.2254C36.9376 27.3237 36.5799 26.6039 36.2992 26.0738M37.3849 28.2254C37.3742 27.5443 37.3662 26.9089 37.361 26.34M37.3849 28.2254C37.4101 29.8363 37.4499 31.703 37.5004 33.55M36.2992 26.0738C36.4143 25.7117 36.5322 25.3399 36.6523 24.9597M36.2992 26.0738C36.0784 26.7682 35.8677 27.4268 35.67 28.0396M35.6015 24.9995C35.5142 24.9495 35.4629 25.0151 35.442 25.1998M35.6015 24.9995C35.8143 24.7305 36.0288 24.4522 36.2446 24.164M35.6015 24.9995C35.5482 25.0668 35.4951 25.1336 35.442 25.1998M35.442 25.1998C35.3054 25.3704 35.1695 25.5371 35.0346 25.7003M35.67 28.0396C35.6751 28.0826 35.6803 28.1261 35.6855 28.17C35.8325 29.4076 36.0332 31.0163 36.2598 32.8087M35.67 28.0396C35.5726 28.3418 35.4783 28.633 35.3875 28.9117M36.2598 32.8087C36.264 32.8421 36.2683 32.8756 36.2725 32.9092M36.2598 32.8087C36.1431 32.739 36.0254 32.6687 35.9066 32.5978M36.2598 32.8087C36.6886 33.0647 37.1029 33.3123 37.5004 33.55M36.2725 32.9092C36.4699 34.4695 36.6862 36.1654 36.9034 37.8743M36.2725 32.9092C36.701 33.1616 37.1109 33.404 37.5028 33.6365M36.2725 32.9092C36.1574 32.8413 36.0409 32.7727 35.923 32.7034M36.9034 37.8743C37.3241 41.1849 37.7478 44.5446 38.0419 47.0631C38.6661 52.4085 38.6699 53.6882 38.4127 47.1365C38.4034 46.9 38.3938 46.6532 38.3839 46.3971M36.9034 37.8743C36.5376 36.3741 36.2032 34.5027 35.923 32.7034M36.9034 37.8743C37.1759 38.992 37.4659 39.9037 37.7638 40.4258M38.3839 46.3971C38.3232 44.8334 38.2508 42.9225 38.1731 40.8787M38.3839 46.3971C38.1696 45.4615 37.9482 43.7546 37.7638 40.4258M38.3839 46.3971C38.4611 46.7345 38.5375 46.9716 38.6108 47.1482C38.7873 47.5731 39.5541 42.6768 40.7073 37.2319M38.1731 40.8787C38.0868 38.6097 37.9938 36.177 37.9028 33.874M38.1731 40.8787C38.0356 40.8193 37.8989 40.6626 37.7638 40.4258M38.1731 40.8787C38.4451 40.9964 38.7201 40.7335 38.9911 39.9577C39.3271 38.9961 39.6543 37.2302 39.9782 35.1136M37.9028 33.874C37.9017 33.8456 37.9006 33.8171 37.8994 33.7887M37.9028 33.874C37.7716 33.796 37.6383 33.7169 37.5028 33.6365M37.8994 33.7887C37.7684 33.7103 37.6354 33.6307 37.5004 33.55M37.6059 26.8127C37.5407 25.4166 37.4845 24.3793 37.4432 23.8955C37.3633 22.9613 37.3411 24.1642 37.361 26.34M37.6059 26.8127C37.5214 26.65 37.4398 26.4924 37.361 26.34M37.361 26.34C37.0937 25.8227 36.859 25.3639 36.6523 24.9597M37.5004 33.55C37.5012 33.5789 37.502 33.6077 37.5028 33.6365M37.5028 33.6365C37.5471 35.2424 37.5994 36.8302 37.6575 38.2189C37.6912 39.0244 37.7267 39.7578 37.7638 40.4258M40.7073 37.2319C40.8116 36.7395 40.9191 36.2426 41.0295 35.7447M40.7073 37.2319C40.63 36.6523 40.5493 36.041 40.4663 35.4065M41.0295 35.7447C41.0346 35.722 41.0396 35.6993 41.0447 35.6766M41.0295 35.7447C40.8491 35.6364 40.6614 35.5236 40.4663 35.4065M41.0447 35.6766C40.8587 35.5645 40.6623 35.4462 40.4552 35.3216M41.4481 33.9202C41.0955 33.285 40.7506 32.6609 40.418 32.0554M42.4551 33.0132C42.7141 33.95 43.0393 35.4009 43.3855 37.1001M42.4551 33.0132C42.4394 33.9156 42.4238 34.7985 42.4087 35.6437M42.4551 33.0132C42.494 30.7912 42.5345 28.451 42.5749 26.2646M43.3855 37.1001C43.389 37.1176 43.3926 37.135 43.3961 37.1525M43.3855 37.1001C43.3125 37.055 43.2313 37.0048 43.1413 36.9496M43.3855 37.1001C44.1488 37.5729 44.004 37.5051 43.3961 37.1525M43.3961 37.1525C43.4222 37.2808 43.4484 37.4105 43.4747 37.5415M43.3961 37.1525C43.3315 37.115 43.2615 37.0742 43.1869 37.0306M43.4747 37.5415C44.1161 38.6788 44.7561 39.8059 45.371 40.8815M43.4747 37.5415C43.3788 37.3714 43.2828 37.201 43.1869 37.0306M45.371 40.8815C45.1399 37.468 44.8829 33.6479 44.6272 29.8324M44.6272 29.8324C44.5946 29.3448 44.5619 28.8572 44.5293 28.3706M44.6272 29.8324C43.9347 28.6229 43.2393 27.4144 42.5749 26.2646M44.5293 28.3706C43.8649 27.035 43.2148 25.729 42.608 24.5092M44.0385 21.019C43.9838 20.1971 43.9303 19.3929 43.8784 18.6113M44.0385 21.019C43.6412 19.4174 43.2359 18.5442 42.8433 18.9222C42.8056 18.9585 42.7681 19.0059 42.7307 19.0639M43.8784 18.6113C43.0045 15.3518 42.835 15.7058 42.7307 19.0639M43.4415 12.0091C43.1448 7.5009 43.0074 5.34775 42.9304 4.36385M42.9304 4.36385C42.8536 3.38294 42.8367 3.56418 42.7816 3.73255C42.4628 4.70687 41.304 5.46897 39.2786 8.20945M42.9304 4.36385C44.0219 0.526091 43.9009 0.30482 42.7903 2.03777C41.987 3.29117 40.696 5.51393 39.2786 8.20945M28.5334 27.3527C28.4431 27.2838 28.3491 27.213 28.2516 27.1404M28.1984 28.0096C28.1663 28.0725 28.1344 28.1352 28.1026 28.1977M28.1984 28.0096C28.0753 27.9366 27.9521 27.8634 27.8288 27.7903M28.1984 28.0096C28.2492 28.0398 28.3 28.07 28.3508 28.1002M28.1026 28.1977C28.0529 28.2953 28.0035 28.3924 27.9544 28.489M28.1026 28.1977C28.1959 28.2506 28.2891 28.3034 28.3821 28.3561M28.1026 28.1977C28.033 28.1584 27.9634 28.1189 27.8936 28.0795M27.9544 28.489C27.9388 28.3485 27.9187 28.2119 27.8936 28.0795M26.2207 31.9134C26.1828 31.7367 26.145 31.5576 26.1071 31.3776M25.1524 34.0639C24.5331 33.2321 23.8547 32.3478 23.1181 31.4332M23.1181 31.4332C22.562 30.7426 21.9726 30.0347 21.3506 29.3191C20.8366 28.7279 20.2685 28.1582 19.6444 27.6069M23.3498 29.9625C23.4133 29.5648 23.4798 29.1519 23.5488 28.7264M23.5488 28.7264C23.5971 28.4288 23.6467 28.125 23.6973 27.8159M23.5488 28.7264C24.3012 28.8862 24.1845 28.4821 23.6973 27.8159M23.6973 27.8159C23.4931 27.5366 23.2238 27.2113 22.9261 26.8622C22.1443 25.9456 21.2223 24.8534 20.0504 23.6878M24.0143 25.8964C24.8926 26.3881 25.7792 26.8861 26.6587 27.3819M24.07 25.562C24.938 26.0759 25.819 26.5979 26.7016 27.1215M24.2566 24.447C24.3603 23.8296 24.4658 23.2048 24.5721 22.5782M24.2566 24.447C25.2297 25.0576 26.1017 25.6295 26.8569 26.1475M24.2566 24.447C22.3658 23.2604 20.0936 21.9279 17.5564 20.5614C16.4639 19.9729 15.4232 19.4682 14.4653 19.0365M24.5721 22.5782C25.7388 23.7575 26.4584 24.6518 26.9513 25.527M28.2516 27.1404C28.002 26.9546 27.7291 26.7571 27.4342 26.549M27.4342 26.549C27.2502 26.4191 27.0577 26.2852 26.8569 26.1475M27.4342 26.549C27.2986 26.2009 27.1419 25.8654 26.9513 25.527M26.8569 26.1475C26.8892 25.939 26.9207 25.7321 26.9513 25.527M27.8288 27.7903C27.8534 27.8842 27.8749 27.9806 27.8936 28.0795M28.3508 28.1002C28.361 28.1862 28.3714 28.2716 28.3821 28.3561M30.9371 29.6371C31.0596 29.7099 31.1817 29.7826 31.3035 29.855M30.9371 29.6371C30.9263 29.6891 30.9157 29.741 30.9051 29.7928M31.3035 29.855C31.2705 29.8918 31.2379 29.9284 31.2055 29.9648M33.7283 31.2987C33.9703 31.4428 34.2096 31.5855 34.4459 31.7264M33.7283 31.2987C33.7233 31.3364 33.7183 31.3742 33.7133 31.4119M34.4459 31.7264C34.947 32.0252 35.4349 32.3162 35.9066 32.5978M34.4459 31.7264C34.6716 31.08 34.9449 30.2662 35.2736 29.2609C35.3109 29.1468 35.3489 29.0304 35.3875 28.9117M34.4459 31.7264C34.4349 31.7578 34.4241 31.7888 34.4134 31.8194M35.9066 32.5978C35.779 31.7736 35.663 30.9665 35.5606 30.2192C35.4978 29.7606 35.4402 29.325 35.3875 28.9117M35.9066 32.5978C35.9121 32.633 35.9175 32.6682 35.923 32.7034M39.9893 35.0414C40.1503 35.1382 40.3055 35.2315 40.4552 35.3216M39.9893 35.0414C39.9856 35.0655 39.9819 35.0896 39.9782 35.1136M40.4552 35.3216C40.4589 35.3499 40.4626 35.3782 40.4663 35.4065M42.3934 36.4927C42.6901 36.6731 42.9379 36.8245 43.1413 36.9496M42.3934 36.4927C42.393 36.5155 42.3925 36.5382 42.3921 36.5609M42.3934 36.4927C42.3984 36.2146 42.4035 35.9313 42.4087 35.6437M43.1413 36.9496C43.1565 36.9766 43.1717 37.0036 43.1869 37.0306M43.1413 36.9496C42.8963 36.514 42.6516 36.0779 42.4087 35.6437M43.1869 37.0306C43.0044 36.9238 42.7936 36.7995 42.5626 36.6623C42.5069 36.6293 42.4501 36.5955 42.3921 36.5609M40.4663 35.4065C40.3085 35.3117 40.1458 35.2141 39.9782 35.1136M35.923 32.7034C35.4424 32.4208 34.9394 32.1261 34.4134 31.8194M34.4134 31.8194C34.1844 31.6858 33.9511 31.55 33.7133 31.4119M34.4134 31.8194C33.4153 34.6643 33.3803 34.1184 33.5899 32.3881C33.6293 32.0622 33.6705 31.7366 33.7133 31.4119M31.2055 29.9648C31.1059 29.9078 31.0057 29.8504 30.9051 29.7928M31.2055 29.9648C31.0552 30.134 30.9109 30.2998 30.7733 30.4629M30.9051 29.7928C30.859 30.0187 30.8151 30.2421 30.7733 30.4629M27.8936 28.0795C27.4846 27.848 27.0724 27.6152 26.6587 27.3819M7.12798 17.1848C6.99472 17.1224 6.86528 17.0598 6.7387 16.9962M7.12798 17.1848C7.12105 17.2146 7.11413 17.2447 7.10723 17.2751M6.7387 16.9962C6.57752 16.9152 6.42099 16.8326 6.26718 16.7463M6.7387 16.9962C6.62713 14.5471 6.51782 12.3043 6.4184 10.4626C6.29646 8.20372 6.19001 6.54987 6.1059 5.51152M6.7387 16.9962C6.73971 17.0185 6.74072 17.0407 6.74174 17.063M6.26718 16.7463C6.07176 16.6366 5.88072 16.5211 5.69007 16.3957L5.68725 16.3939C5.50432 16.2736 5.33583 16.1628 5.2317 16.5699M6.26718 16.7463C6.268 16.7689 6.26882 16.7916 6.26964 16.8142M6.26718 16.7463C6.1618 13.8389 6.05504 11.1163 5.98779 9.03435C5.93371 7.36018 5.90635 6.12499 5.90183 5.32287M5.2317 16.5699C5.07559 17.1801 5.06413 18.9543 5.36555 23.6053C5.56272 26.6477 5.8969 30.9208 6.27132 35.4715M5.2317 16.5699C5.56169 16.8346 5.91667 17.1184 6.29134 17.4172M5.2317 16.5699C5.14085 16.497 5.05189 16.4255 4.96494 16.3557C3.80529 15.4236 3.02617 14.7846 2.49482 14.3482M6.27132 35.4715C5.84202 36.8757 5.02195 34.4355 4.21307 30.726M6.27132 35.4715C6.34742 35.2226 6.41124 34.8528 6.46054 34.3479C6.48353 34.1125 6.50322 33.8473 6.51989 33.555M1.42572 13.4984C1.63809 14.8326 1.92241 16.9417 2.2708 19.3657M1.42572 13.4984C1.5798 13.5955 1.86108 13.8277 2.49482 14.3482M1.42572 13.4984C1.36792 13.462 1.32802 13.4445 1.29413 13.438C1.09414 13.3995 1.11578 13.7535 1.69868 16.5886C1.85513 17.3495 2.05197 18.2884 2.2708 19.3657M2.2708 19.3657C2.60662 21.7022 3.00197 24.3312 3.44978 26.8405C3.57199 27.5252 3.69783 28.1986 3.82562 28.8499M2.2708 19.3657C2.68148 21.3874 3.16965 23.8966 3.61379 26.632M3.82562 28.8499C3.95337 29.5009 4.08307 30.1298 4.21307 30.726M3.82562 28.8499C4.17374 32.4636 4.48544 35.5374 4.68591 37.2578C5.25126 42.1095 4.94166 36.3734 4.21307 30.726M3.82562 28.8499C3.75626 28.1299 3.68545 27.3884 3.61379 26.632M4.21307 30.726C4.20162 30.6372 4.19006 30.5485 4.17841 30.4598C4.00672 29.1537 3.81476 27.8697 3.61379 26.632M6.51989 33.555C6.65819 31.1287 6.58741 26.84 6.45354 22.316M6.51989 33.555C6.41329 30.8648 6.33828 28.1233 6.34534 25.8795C6.34951 24.5526 6.38885 23.3691 6.45354 22.316M6.45354 22.316C6.40537 20.6883 6.34904 19.0301 6.29134 17.4172M6.45354 22.316C6.53891 20.9262 6.66843 19.7633 6.81951 18.797M6.29134 17.4172C6.29 17.3797 6.28866 17.3422 6.28732 17.3048M6.29134 17.4172C6.44925 17.5431 6.61067 17.6717 6.77518 17.8026M6.28732 17.3048C6.28143 17.1407 6.27554 16.9772 6.26964 16.8142M6.28732 17.3048C6.43265 17.4144 6.59343 17.5343 6.76896 17.6643M6.28732 17.3048C5.47782 16.694 5.14761 16.4021 5.418 16.4764C5.67248 16.5463 5.95822 16.6615 6.26964 16.8142M6.26964 16.8142C6.42114 16.8886 6.57872 16.9718 6.74174 17.063M5.90183 5.32287C5.89304 3.76355 5.97056 3.8409 6.1059 5.51152M5.90183 5.32287C3.90205 3.47128 2.54109 2.12164 2.0036 1.34042C1.59108 0.740842 1.34199 0.259698 1.9834 8.27841C2.12083 9.99646 2.29707 12.0824 2.49482 14.3482M5.90183 5.32287C5.96913 5.38519 6.03716 5.44807 6.1059 5.51152M6.74174 17.063C6.7508 17.2621 6.75987 17.4625 6.76896 17.6643M6.74174 17.063C6.86075 17.1295 6.98267 17.2004 7.10723 17.2751M6.76896 17.6643C6.77103 17.7103 6.7731 17.7564 6.77518 17.8026M6.76896 17.6643C6.84028 17.7171 6.91404 17.7715 6.99019 17.8276M6.77518 17.8026C6.78994 18.131 6.80472 18.4626 6.81951 18.797M6.77518 17.8026C6.8382 17.8527 6.90168 17.9032 6.9656 17.954M6.81951 18.797C6.86636 18.4974 6.91528 18.2167 6.9656 17.954M6.9656 17.954C6.97376 17.9114 6.98196 17.8692 6.99019 17.8276M6.99019 17.8276C7.02856 17.6334 7.06767 17.4493 7.10723 17.2751M19.8553 27.2082C19.6127 27.0972 19.3732 26.9867 19.137 26.8766M19.8553 27.2082C20.0482 27.4037 20.1958 27.5663 20.2976 27.6934C20.3572 27.7678 20.4005 27.8294 20.4262 27.8772M19.137 26.8766C19.1718 26.9036 19.2066 26.9307 19.2415 26.9578C19.6461 27.2726 20.0418 27.581 20.4262 27.8772M18.1888 26.4289C17.9356 26.3078 17.6866 26.1875 17.4418 26.0681M10.1719 22.1209C10.2705 22.1448 10.3766 22.1754 10.4891 22.2118M19.6444 27.6069C20.3128 28.0292 20.5394 28.0875 20.4262 27.8772M39.0203 17.3631C39.2057 17.6938 39.4319 18.1296 39.7046 18.6699M38.4685 19.1494C38.4589 19.1804 38.4493 19.2113 38.4398 19.2423M38.4685 19.1494C38.4745 19.2043 38.4806 19.2601 38.4868 19.3168M38.4398 19.2423C38.4553 19.2669 38.471 19.2917 38.4868 19.3168M37.4287 22.4904C37.0322 23.0843 36.6363 23.6407 36.2446 24.164M34.5219 26.3094C34.6565 25.5822 34.7957 24.8756 34.9374 24.1966M34.5219 26.3094C34.6911 26.112 34.8621 25.9091 35.0346 25.7003M34.9374 24.1966C34.9526 24.6141 34.9843 25.1132 35.0346 25.7003M38.4868 19.3168C38.6249 19.5359 38.7737 19.7769 38.9343 20.0411M38.4868 19.3168C38.4987 19.4254 38.5111 19.5372 38.524 19.6523C38.556 19.9398 38.5909 20.2476 38.6282 20.5733M38.9343 20.0411C38.8325 20.2214 38.7304 20.3988 38.6282 20.5733M41.4879 24.388C41.8363 24.988 42.2006 25.617 42.5749 26.2646M41.4879 24.388C41.5751 23.8256 41.6626 23.2885 41.7506 22.7854M42.5749 26.2646C42.5859 25.6661 42.597 25.0791 42.608 24.5092M45.7587 31.8145C46.1168 32.4438 46.4689 33.0645 46.8099 33.6682M45.7587 31.8145C45.705 31.382 45.6502 30.9471 45.5944 30.5122M46.8099 33.6682C47.253 34.4526 47.6775 35.2082 48.0723 35.9164M46.8099 33.6682C46.7958 33.4058 46.7814 33.1405 46.7669 32.8727M48.0723 35.9164C48.3566 36.4263 48.6256 36.9117 48.8751 37.3656C49.1198 37.8108 49.3487 38.2354 49.5628 38.6405M48.0723 35.9164C48.0102 35.6556 47.9475 35.3922 47.8843 35.1267M48.0723 35.9164C48.625 38.2363 49.1318 40.35 49.5262 41.9498C49.8606 43.3059 50.1093 44.2712 50.2895 44.9186M49.5628 38.6405C49.6618 38.8278 49.7577 39.011 49.8506 39.1901M49.5628 38.6405C49.558 38.5925 49.5532 38.5451 49.5485 38.4984M49.5628 38.6405C49.7196 40.1944 49.9644 42.3858 50.2895 44.9186M49.8506 39.1901C52.0658 43.4636 52.56 45.4358 52.9338 46.6524C53.042 47.0047 53.0796 46.613 53.0429 46.219C53.0061 45.8249 52.9311 45.4302 50.502 40.4453C50.2955 40.0215 50.0719 39.5645 49.8342 39.08M49.8506 39.1901C50.1 40.874 50.3654 42.8043 50.5373 44.1912C50.757 45.9642 50.8234 46.8362 50.2895 44.9186M49.8506 39.1901C49.8451 39.1533 49.8396 39.1165 49.8342 39.08M49.8342 39.08C49.7411 38.8902 49.6458 38.6962 49.5485 38.4984M49.8342 39.08C49.6631 37.929 49.5007 36.903 49.3827 36.2592C49.3204 35.9193 49.3792 36.8039 49.5485 38.4984M49.5485 38.4984C49.0405 37.4649 48.4777 36.3252 47.8843 35.1267M47.8843 35.1267C47.5214 34.3938 47.1471 33.6388 46.7669 32.8727M47.8843 35.1267C47.4661 33.3693 47.0265 31.517 46.5929 29.6962M46.7669 32.8727C46.3803 32.0937 45.9875 31.303 45.5944 30.5122M46.7669 32.8727C46.7111 31.8432 46.6527 30.7771 46.5929 29.6962M42.608 24.5092C42.3107 23.9117 42.0238 23.3348 41.7506 22.7854M40.2175 33.4896C40.2844 33.0205 40.3512 32.541 40.418 32.0554M2.49482 14.3482C2.83363 18.2301 3.23561 22.6399 3.61379 26.632M26.1071 29.5897C26.1071 29.6383 26.1071 29.687 26.1504 34.1129L26.1584 34.9305C26.16 35.0992 26.1617 35.2724 26.1634 35.4499M26.1634 35.4499C26.1837 37.5209 26.2095 40.1648 26.2348 42.8128M26.1634 35.4499C25.5612 34.6076 24.9459 34.4758 24.3513 35.5482C24.0743 36.048 23.6997 38.804 24.3718 44.1739C24.5097 45.2752 24.6925 46.4784 24.889 47.6715M26.1634 35.4499C26.6521 36.1333 27.1321 37.2844 27.5854 38.6393M26.2348 42.8128C26.2538 44.8015 26.2725 46.7924 26.2884 48.5447M26.2348 42.8128C25.6619 44.628 25.1688 46.3112 24.889 47.6715M26.2348 42.8128C26.6593 41.4682 27.1275 40.0511 27.5854 38.6393M26.2884 48.5447C26.2991 49.7355 26.3086 50.816 26.3159 51.7107C26.3233 52.6189 26.3284 53.3241 26.3283 53.8519M26.2884 48.5447C26.5141 47.7426 26.8003 46.7694 27.1704 45.6685C27.6499 44.2419 28.0909 42.9083 28.49 41.6863M26.2884 48.5447C25.8627 50.0576 25.6524 50.9623 25.5015 50.9688C25.4886 50.9693 25.4758 50.9697 25.4631 50.9697M26.3283 53.8519C26.328 55.3303 26.2867 55.4169 26.1406 54.6726M26.3283 53.8519C26.9992 50.8789 27.906 46.4683 28.6949 42.46M26.3283 53.8519C26.269 54.1149 26.2114 54.3666 26.156 54.6058C26.1509 54.6282 26.1457 54.6504 26.1406 54.6726M26.1406 54.6726C26.0878 54.4039 26.0214 54.0269 25.9382 53.568C25.8107 52.8637 25.6439 51.9675 25.4631 50.9697M26.1406 54.6726C25.0968 59.1654 24.8527 58.8785 23.827 54.7332C22.7962 50.5676 20.9833 42.5136 19.75 37.6383C16.6011 28.8973 14.6184 26.6669 13.539 26.067C13.0208 25.8364 12.5625 25.7558 11.2481 25.5405M25.4631 50.9697C25.2774 49.9448 25.0769 48.8128 24.889 47.6715M25.4631 50.9697C24.5269 50.9756 24.4771 49.6732 24.889 47.6715M27.5854 38.6393C27.902 39.5855 28.2056 40.6311 28.49 41.6863M27.5854 38.6393C27.9281 37.5831 28.2648 36.5298 28.5731 35.512C29.4197 32.7173 30.0695 31.4715 30.4003 31.0919C30.7311 30.7124 30.7884 31.2521 29.9092 36.089C29.7567 36.9281 29.576 37.8961 29.3758 38.9468M28.49 41.6863C28.5595 41.9441 28.6278 42.2024 28.6949 42.46M28.49 41.6863C28.8133 40.6966 29.1091 39.7802 29.3758 38.9468M28.6949 42.46C29.6556 46.148 30.3637 49.6851 30.5561 49.2294C33.6558 41.8893 30.884 34.7342 31.0698 33.5677C31.0856 33.4684 30.4805 35.4953 29.3758 38.9468M28.6949 42.46C28.9363 41.2337 29.1667 40.045 29.3758 38.9468" stroke="#FF0000" stroke-width="2" stroke-linecap="round"/>
</svg>
